<?xml version="1.0" standalone="no"?>
<!DOCTYPE svg PUBLIC "-//W3C//DTD SVG 20010904//EN"
 "http://www.w3.org/TR/2001/REC-SVG-20010904/DTD/svg10.dtd">
<svg version="1.0" xmlns="http://www.w3.org/2000/svg"
 width="699.000000pt" height="699.000000pt" viewBox="0 0 699.000000 699.000000"
 preserveAspectRatio="xMidYMid meet">
<metadata>
Created by potrace 1.14, written by Peter Selinger 2001-2017
</metadata>
<g transform="translate(0.000000,699.000000) scale(0.100000,-0.100000)"
fill="#000000" stroke="none">
<path d="M3790 6961 c-43 -28 -51 -30 -183 -34 -78 -3 -143 -9 -149 -15 -8 -8
-7 -20 1 -41 7 -17 10 -40 6 -53 -9 -26 -57 -100 -93 -140 l-24 -27 -22 27
c-30 37 -54 79 -69 127 -15 44 -54 69 -124 82 -137 24 -342 -29 -432 -113 -14
-13 -29 -24 -33 -24 -3 0 -18 -24 -33 -53 -22 -47 -25 -60 -16 -95 12 -54 -4
-122 -28 -122 -22 0 -59 40 -105 113 -58 92 -79 111 -122 109 -49 -2 -63 -7
-169 -58 -74 -36 -99 -44 -147 -44 -65 0 -71 -6 -83 -80 -6 -35 -18 -54 -57
-92 -55 -53 -55 -62 5 -115 38 -33 49 -54 37 -73 -14 -23 -75 23 -90 70 -23
69 -54 83 -147 67 -33 -6 -49 -16 -78 -51 -20 -24 -50 -52 -68 -61 -93 -48
-176 -105 -182 -126 -3 -9 2 -35 10 -59 24 -68 20 -86 -27 -120 -61 -45 -70
-60 -52 -96 8 -16 28 -45 43 -64 42 -54 42 -55 -3 -57 -27 -2 -65 6 -105 22
-66 27 -118 37 -126 25 -3 -5 -29 0 -57 11 -69 25 -88 24 -145 -8 -75 -41 -99
-62 -124 -106 -20 -36 -23 -56 -24 -162 -2 -103 -5 -125 -23 -155 -26 -42 -28
-77 -6 -109 16 -22 16 -24 0 -33 -29 -16 -148 -122 -184 -162 -17 -20 -32 -47
-33 -59 0 -12 -2 -30 -4 -39 -2 -9 1 -34 5 -55 24 -105 25 -100 -30 -106 -81
-10 -108 -38 -124 -130 -3 -15 -17 -52 -31 -83 -32 -67 -28 -104 13 -148 32
-33 38 -48 48 -111 3 -22 11 -46 17 -53 14 -17 -2 -27 -68 -43 -121 -29 -168
-66 -186 -146 -10 -44 -23 -66 -57 -102 l-44 -45 5 -61 c10 -105 7 -99 87
-203 60 -78 74 -87 138 -83 24 1 48 -1 55 -6 7 -5 31 -15 53 -21 38 -11 42
-16 47 -50 8 -56 -29 -137 -71 -158 -18 -8 -43 -17 -55 -19 -12 -2 -33 -6 -47
-8 -14 -2 -51 1 -83 8 -76 15 -87 4 -87 -91 l-1 -69 -45 -33 c-24 -18 -42 -36
-40 -40 3 -5 1 -14 -3 -21 -5 -8 1 -31 17 -58 l25 -45 -22 -46 c-12 -26 -24
-56 -25 -67 -4 -21 30 -57 77 -81 15 -8 58 -34 95 -58 37 -24 88 -55 114 -69
l47 -26 48 37 c41 32 55 37 96 35 37 -1 53 -6 65 -23 10 -12 27 -33 39 -46 18
-22 20 -30 11 -62 -16 -59 -23 -67 -97 -112 -220 -132 -242 -235 -86 -395 43
-43 65 -77 65 -97 0 -22 35 -36 76 -32 69 8 79 7 132 -18 51 -25 51 -25 27
-38 -20 -11 -28 -31 -50 -129 -22 -93 -34 -125 -61 -160 -40 -52 -41 -66 -13
-120 21 -41 83 -81 126 -81 40 0 108 -67 160 -158 18 -32 33 -53 33 -48 0 5 6
4 13 -2 10 -9 26 -2 67 27 47 33 58 37 88 30 44 -10 94 -3 107 14 7 10 10 -12
11 -72 0 -80 3 -93 47 -190 53 -118 65 -132 127 -152 50 -17 55 -17 155 -1 39
6 84 13 100 16 111 15 151 39 160 96 4 21 19 48 38 68 l33 32 2 -27 c1 -16 4
-38 6 -49 6 -29 -17 -60 -57 -79 -36 -17 -49 -40 -77 -135 -26 -89 -34 -154
-21 -179 6 -11 38 -30 72 -42 47 -17 66 -31 91 -65 20 -29 41 -45 62 -50 40
-10 135 -9 161 1 35 14 99 62 140 104 22 23 58 51 80 62 22 12 47 30 55 41 15
18 16 14 16 -49 1 -108 17 -192 61 -305 23 -60 30 -69 66 -83 22 -9 42 -14 44
-11 3 3 15 1 28 -4 18 -7 41 0 107 33 46 23 114 55 152 71 37 16 77 38 87 49
10 12 19 16 19 11 0 -5 -16 -27 -35 -47 -19 -20 -35 -41 -35 -46 0 -22 105
-121 145 -136 30 -12 48 -28 63 -54 12 -20 30 -45 41 -55 20 -18 21 -17 74 37
58 61 74 64 129 25 14 -10 32 -18 40 -18 42 0 169 116 210 191 l17 31 14 -33
c22 -52 143 -149 210 -167 44 -12 132 -7 173 9 16 7 31 13 34 14 40 9 69 47
75 98 2 18 16 57 31 88 22 48 30 56 48 51 35 -9 52 -38 55 -94 3 -63 17 -82
77 -98 24 -7 47 -17 50 -21 5 -9 115 -86 124 -87 3 0 19 -6 35 -12 41 -17 138
-15 172 2 15 8 51 26 79 41 33 17 66 26 95 26 24 -1 50 -1 56 0 19 2 42 42 48
86 4 22 14 51 23 64 54 76 53 72 37 156 -3 17 -13 55 -22 85 -13 47 -15 74
-10 148 1 19 10 14 36 -21 56 -75 208 -165 297 -175 38 -4 48 -1 80 27 35 31
38 32 103 25 63 -6 70 -4 90 17 11 12 21 28 21 35 0 6 19 34 43 60 23 27 49
62 57 78 21 40 18 160 -4 217 -10 24 -17 44 -16 44 1 0 -4 14 -10 30 -15 37
-18 82 -10 115 9 34 -11 71 -54 101 -31 21 -76 91 -76 118 0 4 -9 20 -20 34
l-21 26 57 -25 c32 -14 81 -46 109 -72 28 -26 71 -57 96 -70 51 -26 279 -102
306 -102 20 0 42 28 58 75 7 21 28 39 73 65 98 55 128 89 135 155 4 39 13 64
31 86 31 37 33 71 6 138 -10 28 -22 72 -26 98 -8 61 -14 68 -77 89 -28 9 -65
30 -83 46 -17 16 -40 35 -49 42 -16 12 -15 12 12 9 33 -5 65 20 107 87 18 29
28 35 57 34 33 0 94 -9 153 -20 46 -10 159 -7 188 5 29 11 44 33 52 76 3 15
23 55 45 89 55 83 71 126 71 186 0 61 -26 119 -80 180 -39 44 -48 60 -32 60 4
0 17 15 27 33 16 25 20 52 21 127 1 52 4 111 8 130 11 60 8 118 -7 147 -8 16
-35 69 -61 118 l-47 90 22 15 c12 8 27 15 33 16 24 4 143 64 164 84 27 25 28
55 3 109 -11 27 -17 60 -16 94 1 29 -4 69 -11 90 -16 46 -62 107 -80 107 -8 0
-14 4 -14 9 0 12 -95 49 -159 61 -64 12 -76 19 -35 22 16 0 34 2 39 3 6 2 20
3 32 4 30 1 51 25 59 69 6 34 39 90 89 150 27 33 96 83 105 77 13 -8 21 26 26
103 2 40 11 86 19 102 22 43 19 62 -21 121 -20 30 -45 74 -56 99 -25 59 -41
71 -81 59 -47 -13 -94 -11 -129 7 -19 10 -64 17 -119 19 -53 3 -100 10 -118
19 -17 9 -40 16 -52 16 -18 0 -19 2 -9 15 7 8 33 25 57 37 47 23 98 78 127
136 23 46 23 113 -2 160 -11 22 -23 66 -26 98 -8 74 -24 134 -41 157 -22 31
-106 53 -193 52 -68 -1 -85 -5 -128 -30 -27 -16 -64 -30 -82 -31 -32 -1 -32
-1 -17 20 53 73 66 106 67 163 1 37 10 77 25 111 37 85 36 105 -10 156 -10 12
-34 49 -54 84 -67 120 -153 190 -228 187 -40 -2 -100 -32 -128 -64 -13 -14
-32 -34 -43 -43 -30 -26 -142 -64 -199 -67 -27 -2 -53 -5 -57 -7 -17 -11 -98
-16 -98 -6 0 5 11 26 25 46 44 65 53 90 54 151 0 33 1 81 1 107 3 84 -47 163
-135 214 -45 26 -59 29 -142 30 -119 1 -134 -8 -215 -130 -49 -73 -72 -99
-104 -115 -54 -28 -57 -27 -38 10 61 118 62 345 2 462 -23 45 -63 65 -128 62
-29 -1 -62 6 -93 21 -40 18 -54 20 -87 12 -56 -14 -162 -123 -202 -208 -18
-36 -33 -66 -34 -68 -1 -1 -18 14 -38 34 -35 35 -38 36 -96 32 -44 -3 -61 -1
-65 10 -9 23 -6 50 8 64 7 7 22 28 34 47 21 34 21 34 2 68 -11 19 -29 44 -40
56 -11 12 -38 56 -60 99 -47 89 -94 145 -129 153 -17 4 -39 -4 -70 -24z m-52
-1182 c-3 -8 -7 -3 -11 10 -4 17 -3 21 5 13 5 -5 8 -16 6 -23z m9 -41 c-3 -8
-6 -5 -6 6 -1 11 2 17 5 13 3 -3 4 -12 1 -19z m20 -115 c-28 -15 -30 -12 -15
19 11 23 14 24 24 9 10 -13 9 -18 -9 -28z m-2088 -627 c21 -14 68 -35 104 -47
42 -15 63 -28 60 -36 -4 -9 -12 -7 -32 8 -22 16 -38 19 -81 15 -37 -3 -65 0
-87 11 -18 8 -33 17 -33 19 0 7 23 54 27 54 2 0 21 -11 42 -24z m292 -2656
c24 -13 24 -30 2 -69 -20 -34 -33 -40 -33 -16 0 9 -7 29 -15 46 -24 44 -1 64
46 39z m-1101 -335 c0 -1 -19 -17 -42 -36 l-42 -34 27 36 c15 20 34 36 42 36
8 0 15 -1 15 -2z m1161 -597 c-5 -13 -25 -61 -43 -108 -19 -47 -38 -102 -42
-122 -7 -37 -20 -50 -28 -26 -2 6 -1 31 2 55 4 23 5 45 2 48 -2 2 -6 36 -8 74
-4 76 -5 75 63 87 15 3 30 7 32 10 2 2 10 4 17 4 10 0 11 -6 5 -22z m465 -451
c-17 -18 -32 -32 -34 -31 -1 1 2 14 8 30 13 32 27 44 45 38 8 -3 1 -17 -19
-37z m-32 -102 c5 -43 -11 -115 -26 -115 -9 0 -4 82 8 139 7 31 12 24 18 -24z"/>
</g>
</svg>
